Coordinates
version=1
nRows=17
nColumns=36
inDegrees=yes

Units are S.I. units (second, meters, Newtons, ...)
If the header above contains a line with 'inDegrees', this indicates whether rotational values are in degrees (yes) or radians (no).

endheader
time	pelvis_tilt	pelvis_list	pelvis_rotation	pelvis_tx	pelvis_ty	pelvis_tz	hip_flexion_r	hip_adduction_r	hip_rotation_r	knee_angle_r	knee_angle_r_beta	ankle_angle_r	subtalar_angle_r	mtp_angle_r	hip_flexion_l	hip_adduction_l	hip_rotation_l	knee_angle_l	knee_angle_l_beta	ankle_angle_l	subtalar_angle_l	mtp_angle_l	lumbar_extension	lumbar_bending	lumbar_rotation	arm_flex_r	arm_add_r	arm_rot_r	elbow_flex_r	pro_sup_r	arm_flex_l	arm_add_l	arm_rot_l	elbow_flex_l	pro_sup_l
     10.40000000	     -8.86976644	      3.51381952	     -0.97082575	      1.12223013	      0.87058820	     -0.03980975	     31.89331991	      5.18803188	      6.96918195	     39.64100181	      0.69186600	     22.94287774	    -20.40765538	     -7.49999987	     48.52226694	     -3.74878664	     -8.03640975	     17.02181380	      0.29708670	      1.52556482	     -2.12836074	     -7.49999987	    -10.93636387	     -2.85990409	      0.33266666	     51.82048322	     -0.02588076	     73.91791379	    107.21757130	     76.16725020	     43.66361603	      2.98326167	     71.80173295	    113.48267085	     65.03134991
     10.41666670	     -9.46503217	      3.45857989	     -0.33873488	      1.12195751	      0.85351356	     -0.03933740	     34.94108648	      5.57349497	      5.75956401	     44.13563667	      0.77031218	     26.02836788	    -20.48385251	     -7.49999987	     51.06272687	     -3.55700268	     -7.03740341	     16.23060623	      0.28327752	      2.02676170	     -1.25644769	     -7.49999987	    -11.35313371	     -3.26351873	     -0.01321991	     52.93830452	      0.07095269	     73.18749298	    107.20681036	     76.17090204	     45.34228658	      3.17985448	     72.23397292	    113.12758725	     64.95607281
     10.43333330	     -9.52888830	      2.57647226	      0.14875571	      1.11845072	      0.84477180	     -0.03686004	     37.03564737	      6.68004999	      4.76384893	     47.52606820	      0.82948637	     28.34257095	    -19.93439719	     -7.49999987	     52.41461345	     -4.63388491	     -7.00994331	     15.62263960	      0.27266650	     -0.63908441	     -1.46675679	     -7.49999987	    -12.18751036	     -2.67899563	      0.14910801	     53.64518622	     -0.15052313	     72.57409162	    107.41786402	     76.39716959	     46.73212625	      3.52443818	     72.67720884	    113.33238055	     64.96752551
     10.45000000	     -9.48132107	      1.40690011	      0.50020779	      1.11491855	      0.83958907	     -0.03403425	     38.55683422	      7.93764123	      3.65887805	     49.97169372	      0.87217059	     30.09464989	    -19.57156037	     -7.49999987	     53.65892758	     -6.17159746	     -7.41953633	     15.62499712	      0.27270765	     -3.16899486	     -2.53878357	     -7.49999987	    -13.21452319	     -1.68494321	      0.33857248	     54.44061180	     -0.52866036	     72.18597252	    107.45457361	     76.19148719	     47.96149815	      3.91246519	     72.81338082	    112.97919669	     64.78402607
     10.46666670	     -9.34660116	      0.32004678	      1.09168339	      1.11556007	      0.83414812	     -0.03433934	     39.70184567	      8.79245125	      2.66754838	     51.74002742	      0.90303383	     30.75299359	    -19.75106321	     -7.49999987	     54.81135836	     -7.31106350	     -8.90024343	     15.61989401	      0.27261858	     -5.40065704	     -2.87902796	     -7.49999987	    -14.54065354	     -0.67807194	     -0.04555773	     55.08050123	     -0.64385275	     71.61868603	    107.42894498	     76.29052142	     48.64581339	      4.12354912	     72.80064671	    112.31149255	     64.77115655
     10.48333330	     -9.26927965	     -0.36129502	      1.73694499	      1.11535340	      0.82669849	     -0.03397781	     41.05246739	      8.98793761	      1.54093922	     53.95656105	      0.94171964	     31.99813989	    -18.76817768	     -7.49999987	     55.93491640	     -7.60014654	     -9.52138932	     15.02364766	      0.26221212	     -7.56145040	     -3.61705594	     -7.49999987	    -15.75014505	     -0.24811583	     -0.23619981	     54.99459495	     -1.18417497	     71.01148724	    107.52568469	     76.84220116	     49.44894850	      4.75687627	     73.47915664	    111.52562172	     64.86894816
     10.50000000	     -9.21191500	     -0.67866489	      2.20369802	      1.11520271	      0.82133108	     -0.03375328	     42.10049233	      9.07410556	      1.00733878	     55.68988417	      0.97197184	     32.84678383	    -18.13384250	     -7.49999987	     57.05405987	     -7.65461180	    -11.04269682	     14.69009530	      0.25639053	     -9.72181338	     -4.58353006	     -7.49999987	    -16.98821390	     -0.27427143	     -0.35074641	     54.79105796	     -1.62367911	     70.39507245	    107.85880652	     78.68756283	     49.89072669	      5.31103034	     74.19634882	    110.51097909	     65.25424490
     10.51666670	     -9.29848257	     -0.82365636	      2.49781153	      1.11080500	      0.81119794	     -0.03100490	     43.74257109	      9.21747961	      0.78780359	     58.05040112	      1.01317063	     33.87921346	    -17.78738925	     -7.49999987	     58.66295695	     -7.57685993	    -11.93397175	     14.85163822	      0.25920999	    -10.82894132	     -5.99187273	     -7.49999987	    -18.20918084	     -0.25707571	     -1.05348910	     55.56305284	     -1.36565536	     70.45850333	    107.98640263	     78.88626551	     51.01082067	      5.41468585	     74.62831286	    109.81809141	     65.33093825
     10.53333330	     -9.45282094	     -0.94975241	      2.69140245	      1.11394946	      0.80359489	     -0.03316914	     45.23433198	      9.25204868	      0.53044911	     60.53670788	      1.05656487	     34.82261833	    -17.51085436	     -7.49999987	     60.07815001	     -7.36630056	    -12.26038249	     14.75012739	      0.25743829	    -11.31676040	     -6.93604803	     -7.49999987	    -19.07747637	     -0.17006356	     -1.38784488	     55.63055493	     -1.62729292	     69.94816192	    107.84500009	     79.03933002	     51.60510396	      5.42487172	     74.79951891	    109.65843844	     65.44171848
     10.55000000	     -9.34755012	     -1.11706382	      2.72799464	      1.10915605	      0.79827250	     -0.03023640	     46.41792705	      9.59639716	      0.65984180	     62.91624445	      1.09809562	     35.25091702	    -18.01280784	     -7.49999987	     61.06044145	     -7.21572021	    -11.86885475	     14.78163566	      0.25798821	    -11.56184939	     -6.43354418	     -7.49999987	    -20.18524875	     -0.03874849	     -1.40666007	     56.39615619	     -2.05599779	     69.69538796	    107.66047324	     79.07998775	     52.15910660	      5.40652166	     74.70521854	    109.64282928	     65.48720648
     10.56666670	     -9.29246344	     -1.09610095	      2.75080228	      1.10892279	      0.79460572	     -0.02970723	     47.38873672	      9.74140688	      0.75332791	     64.83515633	      1.13158695	     35.51865426	    -18.25898486	     -7.49999987	     61.86536316	     -6.96686662	    -11.17710257	     15.08884325	      0.26335000	    -11.51948575	     -6.07358828	     -7.49999987	    -21.38459995	     -0.09488742	     -2.00844688	     56.91851099	     -1.97732153	     69.98208644	    107.56820435	     79.19816591	     53.38222834	      5.02988762	     74.79145422	    108.87451892	     65.57352194
     10.58333330	     -8.96678458	     -0.88653755	      2.56703247	      1.10523411	      0.78857027	     -0.03187200	     48.39678858	      9.68152329	      0.96290881	     67.01274148	      1.16959298	     35.60577095	    -18.62500026	     -7.49999987	     62.24743155	     -6.68745794	    -10.41902253	     15.42997830	      0.26930392	    -11.96501588	     -5.80679261	     -7.49999987	    -22.99999050	     -0.09080008	     -2.36882967	     57.99846334	     -2.10053142	     69.92645601	    107.44969168	     78.62767901	     55.22198793	      4.65531117	     74.84582719	    109.02851803	     65.51136573
     10.60000000	     -8.52982967	     -0.61942978	      2.47327155	      1.10526212	      0.78009494	     -0.03061141	     49.49395679	      9.56409036	      0.80515075	     69.42570396	      1.21170712	     36.07033699	    -18.77873482	     -7.49999987	     62.36529227	     -6.48504836	     -9.62017768	     15.33207705	      0.26759523	    -12.52279556	     -6.00519974	     -7.49999987	    -24.62269267	     -0.20015810	     -2.60344660	     59.49847934	     -2.20361417	     70.03560302	    107.08823602	     78.02655171	     56.78062089	      4.59354699	     74.90808266	    108.85563414	     65.51362103
     10.61666670	     -8.37834663	     -0.35902127	      2.31881124	      1.10502376	      0.77239371	     -0.02916347	     50.69369271	      9.43370344	      0.61751907	     71.56037734	      1.24896420	     36.63086068	    -18.79707836	     -7.49999987	     62.82650031	     -6.49515945	     -9.20237265	     15.47751237	      0.27013355	    -12.94159660	     -6.03982327	     -7.49999987	    -25.91636058	     -0.26648961	     -2.87951569	     60.96637634	     -2.10661616	     70.34238749	    106.64490015	     78.22634997	     58.63141554	      4.56643942	     74.82870418	    108.08931854	     65.61467166
     10.63333330	     -8.69372387	      0.01002802	      2.41796488	      1.10476805	      0.75903259	     -0.02866066	     52.65557914	      8.94133923	      0.20099073	     74.27867762	      1.29640749	     37.89808256	    -18.28714826	     -7.49999987	     64.14719299	     -6.25173841	     -8.69423468	     15.93700125	      0.27815314	    -13.38055877	     -6.78562106	     -7.49999987	    -26.64287006	     -0.26142773	     -2.88185719	     62.20305877	     -2.41896931	     70.38328568	    106.93404316	     78.03580713	     60.03714842	      4.17779510	     75.00816699	    108.65786041	     65.77480863
     10.65000000	     -8.73368963	      0.08895086	      2.39529159	      1.10447810	      0.75187203	     -0.02828650	     53.93750261	      8.88114080	     -0.11005564	     76.24808924	      1.33078021	     38.55064907	    -18.38357625	     -7.49999987	     64.81840456	     -6.25126608	     -8.29630138	     15.96715508	      0.27867943	    -13.51485649	     -6.67544606	     -7.49999987	    -27.46551707	     -0.04852634	     -2.51461496	     63.32975666	     -2.58203201	     70.07419357	    106.57878760	     78.09674042	     60.95484359	      3.89332356	     74.59225980	    108.57295546	     65.81691626
     10.66666670	     -8.63766999	      0.25789895	      2.58437051	      1.10430654	      0.74836867	     -0.02858523	     54.63323743	      8.46246618	     -0.52191780	     77.83275672	      1.35843787	     39.89523902	    -16.87443316	     -7.49999987	     64.97473100	     -6.10624743	     -8.30115761	     15.84733639	      0.27658820	    -14.08056013	     -7.15523244	     -7.49999987	    -28.55598981	      0.15082847	     -2.75723602	     64.78563529	     -2.13286400	     70.89006364	    105.86136635	     78.21864275	     61.85773317	      3.82165838	     74.58895433	    108.56865564	     66.02137378
